<?xml version="1.0" encoding="UTF-8" standalone="no"?>
<!-- Generator: Adobe Illustrator 16.0.0, SVG Export Plug-In . SVG Version: 6.00 Build 0)  -->

<svg
   version="1.1"
   id="Capa_1"
   x="0px"
   y="0px"
   width="59.227px"
   height="59.227px"
   viewBox="0 0 59.227 59.227"
   style="enable-background:new 0 0 59.227 59.227;"
   xml:space="preserve"
   sodipodi:docname="empty-white-box-svgrepo-com.svg"
   inkscape:version="1.1.2 (b8e25be833, 2022-02-05)"
   xmlns:inkscape="http://www.inkscape.org/namespaces/inkscape"
   xmlns:sodipodi="http://sodipodi.sourceforge.net/DTD/sodipodi-0.dtd"
   xmlns="http://www.w3.org/2000/svg"
   xmlns:svg="http://www.w3.org/2000/svg"><defs
   id="defs41"><inkscape:path-effect
     effect="spiro"
     id="path-effect1193"
     is_visible="true"
     lpeversion="1" /><inkscape:path-effect
     effect="spiro"
     id="path-effect1027"
     is_visible="true"
     lpeversion="1" /><inkscape:path-effect
     effect="spiro"
     id="path-effect1023"
     is_visible="true"
     lpeversion="1" /><inkscape:path-effect
     effect="spiro"
     id="path-effect1019"
     is_visible="true"
     lpeversion="1" /></defs><sodipodi:namedview
   id="namedview39"
   pagecolor="#ffffff"
   bordercolor="#666666"
   borderopacity="1.0"
   inkscape:pageshadow="2"
   inkscape:pageopacity="0.0"
   inkscape:pagecheckerboard="0"
   showgrid="false"
   inkscape:zoom="12.139733"
   inkscape:cx="29.613501"
   inkscape:cy="29.942997"
   inkscape:window-width="1920"
   inkscape:window-height="991"
   inkscape:window-x="-9"
   inkscape:window-y="-9"
   inkscape:window-maximized="1"
   inkscape:current-layer="Capa_1" />
<g
   id="g6"
   style="fill:#000000;fill-opacity:1;stroke:none;stroke-opacity:1;stroke-width:0;stroke-miterlimit:4;stroke-dasharray:none"
   transform="matrix(0.72980382,0,0,0.72980382,7.9189856,15.250358)">
	<g
   id="g4"
   style="fill:#000000;fill-opacity:1;stroke:none;stroke-opacity:1;stroke-width:0;stroke-miterlimit:4;stroke-dasharray:none">
		<path
   d="M 51.586,10.029 C 51.253,9.554 50.689,9.34 50.137,9.422 50.116,9.417 50.095,9.408 50.074,9.405 L 27.469,6.087 C 27.222,6.05 26.97,6.077 26.735,6.163 L 8.63,12.799 C 8.622,12.802 8.615,12.807 8.607,12.81 8.588,12.818 8.57,12.83 8.55,12.837 8.451,12.881 8.359,12.933 8.274,12.994 8.248,13.013 8.223,13.032 8.197,13.053 8.104,13.129 8.019,13.212 7.948,13.307 7.944,13.313 7.938,13.316 7.934,13.322 L 0.289,23.78 c -0.293,0.401 -0.369,0.923 -0.202,1.391 0.167,0.469 0.556,0.823 1.038,0.947 l 6.634,1.713 v 16.401 c 0,0.659 0.431,1.242 1.062,1.435 l 24.29,7.422 c 0.008,0.004 0.017,0.001 0.025,0.005 0.13,0.036 0.266,0.059 0.402,0.06 0.003,0 0.007,0.002 0.011,0.002 v 0 h 10e-4 c 0.143,0 0.283,-0.026 0.423,-0.067 0.044,-0.014 0.085,-0.033 0.13,-0.052 0.059,-0.022 0.117,-0.038 0.175,-0.068 l 17.43,-9.673 c 0.477,-0.265 0.772,-0.767 0.772,-1.312 V 25.586 l 5.896,-2.83 c 0.397,-0.19 0.69,-0.547 0.802,-0.973 0.111,-0.427 0.03,-0.88 -0.223,-1.241 z M 27.41,9.111 45.054,11.701 33.35,17.143 14.816,13.728 Z m -17.609,6.743 21.237,3.914 -6.242,9.364 -20.78,-5.365 z m 0.958,27.268 V 28.605 l 14.318,3.697 c 0.125,0.031 0.25,0.048 0.375,0.048 0.493,0 0.965,-0.244 1.248,-0.668 l 5.349,-8.023 V 49.627 Z M 49.479,41.1 35.048,49.107 V 25.414 l 2.635,5.599 c 0.171,0.361 0.479,0.641 0.854,0.773 0.163,0.06 0.333,0.087 0.502,0.087 0.223,0 0.444,-0.05 0.649,-0.146 l 9.789,-4.698 z M 39.755,28.368 35.548,19.43 49.85,12.78 l 5.634,8.037 z"
   id="path2"
   style="fill:#000000;fill-opacity:1;stroke:none;stroke-opacity:1;stroke-width:0;stroke-miterlimit:4;stroke-dasharray:none" />
	</g>
</g>
<g
   id="g8">
</g>
<g
   id="g10">
</g>
<g
   id="g12">
</g>
<g
   id="g14">
</g>
<g
   id="g16">
</g>
<g
   id="g18">
</g>
<g
   id="g20">
</g>
<g
   id="g22">
</g>
<g
   id="g24">
</g>
<g
   id="g26">
</g>
<g
   id="g28">
</g>
<g
   id="g30">
</g>
<g
   id="g32">
</g>
<g
   id="g34">
</g>
<g
   id="g36">
</g>
<path
   style="fill:none;stroke:#000000;stroke-width:1.06217px;stroke-linecap:round;stroke-linejoin:miter;stroke-opacity:1"
   d="M 30.643177,2.9654687 V 13.838854"
   id="path1021"
   inkscape:path-effect="#path-effect1023"
   inkscape:original-d="m 30.643177,2.9654687 c 10e-4,3.6255899 10e-4,7.2500513 0,10.8733853" /><path
   style="fill:none;stroke:#000000;stroke-width:1px;stroke-linecap:round;stroke-linejoin:miter;stroke-opacity:1"
   d="M 45.635269,8.9787805 40.775195,17.875186"
   id="path1025"
   inkscape:path-effect="#path-effect1027"
   inkscape:original-d="M 45.635269,8.9787805 C 44.016245,11.945249 42.39622,14.910717 40.775195,17.875186" /><path
   style="fill:none;stroke:#000000;stroke-width:1px;stroke-linecap:round;stroke-linejoin:miter;stroke-opacity:1"
   d="M 12.709596,9.5362845 19.004444,17.48243"
   id="path1189"
   inkscape:path-effect="#path-effect1193"
   inkscape:original-d="m 12.709596,9.5362845 c 2.097465,2.6498695 4.195749,5.2985845 6.294848,7.9461455" /></svg>
