<?xml version="1.0" encoding="UTF-8" standalone="no"?>
<!-- Generator: Adobe Illustrator 18.0.0, SVG Export Plug-In . SVG Version: 6.00 Build 0)  -->

<svg
   version="1.1"
   id="Capa_1"
   x="0px"
   y="0px"
   viewBox="0 0 402.309 402.309"
   style="enable-background:new 0 0 402.309 402.309;"
   xml:space="preserve"
   sodipodi:docname="miscellanious.svg"
   inkscape:version="1.1.2 (b8e25be833, 2022-02-05)"
   xmlns:inkscape="http://www.inkscape.org/namespaces/inkscape"
   xmlns:sodipodi="http://sodipodi.sourceforge.net/DTD/sodipodi-0.dtd"
   xmlns="http://www.w3.org/2000/svg"
   xmlns:svg="http://www.w3.org/2000/svg"><defs
   id="defs43" /><sodipodi:namedview
   id="namedview41"
   pagecolor="#ffffff"
   bordercolor="#666666"
   borderopacity="1.0"
   inkscape:pageshadow="2"
   inkscape:pageopacity="0.0"
   inkscape:pagecheckerboard="0"
   showgrid="false"
   inkscape:zoom="1.7871835"
   inkscape:cx="201.1545"
   inkscape:cy="201.1545"
   inkscape:window-width="1920"
   inkscape:window-height="991"
   inkscape:window-x="-9"
   inkscape:window-y="-9"
   inkscape:window-maximized="1"
   inkscape:current-layer="Capa_1" />
<g
   id="g8"
   transform="matrix(0.9554936,0,0,0.9554936,8.9526457,8.9526621)"
   style="fill:#ffffff">
	<path
   d="M 127.339,321.143 H 15.414 L 30.107,48.163 h 196.972 l 7.604,141.349 c 0.222,4.136 3.747,7.302 7.893,7.086 4.136,-0.223 7.309,-3.756 7.086,-7.892 L 241.676,40.26 c -0.214,-3.98 -3.504,-7.097 -7.489,-7.097 H 23 c -3.985,0 -7.275,3.117 -7.489,7.097 l -15.5,287.98 c -0.11,2.056 0.629,4.067 2.045,5.562 1.417,1.495 3.385,2.341 5.444,2.341 h 119.839 c 4.143,0 7.5,-3.358 7.5,-7.5 0,-4.142 -3.357,-7.5 -7.5,-7.5 z"
   id="path2"
   style="fill:#ffffff" />
	<path
   d="m 71.482,61.035 c -4.143,0 -7.5,3.358 -7.5,7.5 v 35.124 c 0,33.911 27.589,61.5 61.5,61.5 33.911,0 61.5,-27.589 61.5,-61.5 V 68.535 c 0,-4.142 -3.357,-7.5 -7.5,-7.5 -4.143,0 -7.5,3.358 -7.5,7.5 v 35.124 c 0,25.64 -20.859,46.5 -46.5,46.5 -25.641,0 -46.5,-20.86 -46.5,-46.5 V 68.535 c 0,-4.142 -3.357,-7.5 -7.5,-7.5 z"
   id="path4"
   style="fill:#ffffff" />
	<path
   d="m 394.809,205.653 h -20.816 l -4.399,-82.893 c -0.211,-3.982 -3.502,-7.103 -7.489,-7.103 h -11.999 v -7.645 c 0,-14.807 -12.046,-26.853 -26.853,-26.853 -14.807,0 -26.854,12.046 -26.854,26.853 v 7.645 h -9.808 c -3.987,0 -7.278,3.121 -7.489,7.103 l -4.398,82.893 H 151.82 c -4.143,0 -7.5,3.358 -7.5,7.5 v 148.493 c 0,4.142 3.357,7.5 7.5,7.5 h 242.988 c 4.143,0 7.5,-3.358 7.5,-7.5 V 213.153 c 0.001,-4.142 -3.357,-7.5 -7.499,-7.5 z m -83.411,-97.64 c 0,-6.536 5.317,-11.853 11.854,-11.853 6.535,0 11.853,5.317 11.853,11.853 v 7.645 h -23.706 v -7.645 z m -17.695,22.645 h 61.288 l 3.98,74.995 h -69.248 z m 93.606,89.995 v 22.498 H 159.32 V 220.653 Z M 159.32,354.146 v -95.994 h 227.988 v 95.994 H 159.32 Z"
   id="path6"
   style="fill:#ffffff" />
</g>
<g
   id="g10">
</g>
<g
   id="g12">
</g>
<g
   id="g14">
</g>
<g
   id="g16">
</g>
<g
   id="g18">
</g>
<g
   id="g20">
</g>
<g
   id="g22">
</g>
<g
   id="g24">
</g>
<g
   id="g26">
</g>
<g
   id="g28">
</g>
<g
   id="g30">
</g>
<g
   id="g32">
</g>
<g
   id="g34">
</g>
<g
   id="g36">
</g>
<g
   id="g38">
</g>
</svg>
