<?xml version="1.0" encoding="UTF-8" standalone="no"?>
<!-- Created with Inkscape (http://www.inkscape.org/) -->

<svg
   width="48"
   height="48"
   viewBox="0 0 12.7 12.7"
   version="1.1"
   id="svg5"
   inkscape:version="1.1.2 (b8e25be833, 2022-02-05)"
   sodipodi:docname="requestersvg.svg"
   xmlns:inkscape="http://www.inkscape.org/namespaces/inkscape"
   xmlns:sodipodi="http://sodipodi.sourceforge.net/DTD/sodipodi-0.dtd"
   xmlns="http://www.w3.org/2000/svg"
   xmlns:svg="http://www.w3.org/2000/svg">
  <sodipodi:namedview
     id="namedview7"
     pagecolor="#ffffff"
     bordercolor="#666666"
     borderopacity="1.0"
     inkscape:pageshadow="2"
     inkscape:pageopacity="0.0"
     inkscape:pagecheckerboard="0"
     inkscape:document-units="mm"
     showgrid="false"
     units="px"
     inkscape:zoom="8.6749592"
     inkscape:cx="55.850407"
     inkscape:cy="23.919421"
     inkscape:window-width="1920"
     inkscape:window-height="991"
     inkscape:window-x="-9"
     inkscape:window-y="-9"
     inkscape:window-maximized="1"
     inkscape:current-layer="g24" />
  <defs
     id="defs2" />
  <g
     inkscape:label="Layer 1"
     inkscape:groupmode="layer"
     id="layer1">
    <g
       id="g24"
       transform="matrix(0.26458333,0,0,0.26458333,-50.751939,-49.558357)">
      <g
         id="g901"
         transform="matrix(0.07894019,0,0,0.07894019,194.98857,190.24438)">
        <path
           d="M 414.951,494.514 H 273.71 v -41.227 c 0.313,-0.362 0.612,-0.739 0.883,-1.145 13.398,-26.797 31.557,-47.231 46.953,-63.578 50.748,-0.408 81.526,-9.307 101.351,-29.994 19.421,-19.421 28.248,-49.434 27.366,-93.572 0,-5.297 -4.414,-8.828 -8.828,-8.828 -81.182,0 -131.281,19.866 -132.388,120.176 -11.188,11.844 -23.7,25.661 -35.337,42.42 V 300.307 c 0,-11.001 12.172,-32.547 30.287,-52.975 81.259,-0.391 119.781,-14.045 119.781,-123.577 0,-5.297 -3.531,-8.828 -8.828,-8.828 -83.036,0 -122.793,12.133 -123.568,120.346 -4.442,5.037 -11.129,13.014 -17.505,22.239 -0.058,-0.323 -0.104,-0.646 -0.169,-0.97 v -97.478 c 0,-10.635 0.696,-19.882 2.18,-28.345 28.399,-5.12 54.57,-21.974 69.324,-44.924 14.124,-22.069 16.772,-50.317 7.945,-79.448 -1.766,-4.414 -5.297,-7.062 -9.71,-6.179 -45.903,7.062 -78.566,25.6 -91.807,54.731 -10.051,21.778 -7.377,46.734 7.25,70.345 -1.927,10.152 -2.836,21.194 -2.836,33.821 v 61.108 c -7.087,-9.923 -14.279,-17.805 -17.684,-21.367 -0.482,-39.697 -7.623,-63.282 -23.806,-79.465 -15.89,-15.89 -39.724,-22.069 -73.269,-22.069 -5.297,0 -8.828,4.414 -8.828,8.828 0,62.58 16.261,104.621 93.44,105.901 10.141,10.88 30.146,36.009 30.146,52.996 v 113.482 c -8.312,-10.788 -16.323,-18.247 -22.952,-24.323 -1.213,-1.213 -2.422,-2.422 -3.551,-3.551 -0.83,-123.019 -58.965,-147.401 -158.877,-147.401 -5.297,0 -8.828,3.531 -8.828,8.828 0,98.333 52.331,148.625 154.449,150.035 1.777,1.777 3.553,3.553 5.33,5.33 9.48,8.618 22.324,20.606 34.428,41.704 v 85.414 H 114.813 c -5.297,0 -8.828,3.531 -8.828,8.828 0,5.297 3.531,8.828 8.828,8.828 h 300.138 c 5.297,0 8.828,-3.531 8.828,-8.828 0,-5.298 -3.531,-8.829 -8.828,-8.829 z m 17.655,-220.69 c -0.883,34.428 -7.945,57.379 -22.069,72.386 -14.813,15.636 -38.073,22.831 -75.488,24.449 9.824,-14.472 22.694,-28.528 40.177,-35.925 4.414,-1.766 6.179,-7.062 4.414,-11.476 -1.766,-4.414 -7.062,-6.179 -11.476,-4.414 -16.872,7.381 -29.647,18.542 -39.836,30.848 7.945,-61.288 42.05,-75.07 104.278,-75.868 z M 267.53,61.962 c 9.71,-22.069 34.428,-37.076 70.621,-43.255 5.297,22.069 2.648,41.49 -7.945,58.262 -12.17,19.016 -32.202,30.161 -49.372,35.141 3.358,-9.19 7.986,-17.904 14.061,-27.196 2.648,-4.414 1.766,-9.71 -2.648,-12.359 -4.414,-2.648 -9.71,-1.766 -12.359,2.648 -5.529,8.438 -9.996,16.59 -13.509,24.991 -4.454,-13.24 -4.079,-26.462 1.151,-38.232 z m -117.407,52.966 c 23.834,0.883 40.607,6.179 52.083,16.772 9.424,10.149 15.273,25.066 17.553,47.184 l -18.436,-19.819 c -3.531,-3.531 -8.828,-4.414 -12.359,-0.883 -3.531,3.531 -4.414,8.828 -0.883,12.359 l 20.768,22.845 c -46.497,-5.732 -57.908,-31.883 -58.726,-78.458 z m -70.62,105.931 c 79.518,1.64 123.248,20.041 131.206,103.249 -18.504,-24.172 -37.522,-40.645 -57.054,-49.401 -4.414,-1.766 -9.71,0 -11.476,4.414 -1.766,4.414 0,9.71 4.414,11.476 19.858,8.401 39.055,26.062 58.162,53.538 C 122.21,339.557 82.078,299.82 79.503,220.859 Z M 406.042,132.63 c -1.527,80.44 -24.716,94.791 -85.674,96.776 10.592,-11.626 25.058,-26.372 38.087,-36.795 4.414,-2.648 4.414,-8.828 1.766,-12.359 -2.648,-4.414 -8.828,-4.414 -12.359,-1.766 -13.308,10.283 -27.443,24.296 -38.148,35.791 4.48,-71.207 31.349,-80.946 96.328,-81.647 z"
           id="path2"
           style="fill:#ff0000" />
      </g>
    </g>
  </g>
</svg>
