<?xml version="1.0" encoding="UTF-8" standalone="no"?>
<!-- Created with Inkscape (http://www.inkscape.org/) -->

<svg
   width="48"
   height="48"
   viewBox="0 0 12.7 12.7"
   version="1.1"
   id="svg5"
   inkscape:version="1.2.1 (9c6d41e410, 2022-07-14)"
   sodipodi:docname="BannerOnError.svg"
   xmlns:inkscape="http://www.inkscape.org/namespaces/inkscape"
   xmlns:sodipodi="http://sodipodi.sourceforge.net/DTD/sodipodi-0.dtd"
   xmlns="http://www.w3.org/2000/svg"
   xmlns:svg="http://www.w3.org/2000/svg">
  <sodipodi:namedview
     id="namedview7"
     pagecolor="#ffffff"
     bordercolor="#666666"
     borderopacity="1.0"
     inkscape:showpageshadow="2"
     inkscape:pageopacity="0.0"
     inkscape:pagecheckerboard="0"
     inkscape:deskcolor="#d1d1d1"
     inkscape:document-units="mm"
     showgrid="false"
     inkscape:zoom="9.5144352"
     inkscape:cx="50.239451"
     inkscape:cy="26.223312"
     inkscape:window-width="1920"
     inkscape:window-height="991"
     inkscape:window-x="-9"
     inkscape:window-y="-9"
     inkscape:window-maximized="1"
     inkscape:current-layer="layer1" />
  <defs
     id="defs2" />
  <g
     inkscape:label="Layer 1"
     inkscape:groupmode="layer"
     id="layer1">
    <circle
       id="path459"
       style="fill:#fb9c5f;stroke:#888888;stroke-width:0.264583"
       cx="2.2613215"
       cy="5.8990993"
       r="0" />
    <circle
       id="path461"
       style="fill:#fb9c5f;stroke:#888888;stroke-width:0.264583"
       cx="9.0059586"
       cy="6.2727089"
       r="0" />
    <g
       id="g865"
       transform="matrix(0.6610477,0,0,0.6610477,2.1523475,1.4207689)">
      <g
         id="g1029">
        <rect
           style="fill:#800000;stroke:#888888;stroke-width:0;stroke-linecap:round;stroke-linejoin:round;paint-order:stroke fill markers"
           id="rect469"
           width="8.8495455"
           height="1.9524786"
           x="4.5554829"
           y="-0.97623926"
           rx="0.30767459"
           ry="0.30767459"
           transform="rotate(45)" />
        <rect
           style="fill:#800000;stroke:#888888;stroke-width:0;stroke-linecap:round;stroke-linejoin:round;paint-order:stroke fill markers"
           id="rect471"
           width="8.8495455"
           height="1.9524786"
           x="-4.4247727"
           y="8.0040159"
           rx="0.36666557"
           ry="0.36666557"
           transform="matrix(-0.70710678,0.70710678,0.70710678,0.70710678,0,0)" />
      </g>
    </g>
    <g
       aria-label="Error Loading image"
       id="text527"
       style="font-size:0.705556px;line-height:1.25;-inkscape-font-specification:'sans-serif, Normal';letter-spacing:0.00264583px;stroke-width:0.264583"
       transform="matrix(0.6610477,0,0,0.6610477,2.152345,1.512683)">
      <path
         d="M 3.1151843,11.511629 H 2.7772202 v -0.512975 h 0.3379641 v 0.06063 H 2.8454331 v 0.14056 h 0.2697512 v 0.06063 H 2.8454331 v 0.190514 h 0.2697512 z"
         id="path809" />
      <path
         d="m 3.4609618,11.197436 h -0.00345 q -0.014469,-0.0034 -0.02825,-0.0048 -0.013436,-0.0017 -0.032039,-0.0017 -0.029972,0 -0.057878,0.01343 -0.027905,0.01309 -0.053744,0.03411 v 0.273196 h -0.064768 v -0.384817 h 0.064768 v 0.05684 q 0.038585,-0.03101 0.067868,-0.04375 0.029628,-0.01309 0.060289,-0.01309 0.016881,0 0.02446,10e-4 0.00758,6.89e-4 0.022738,0.0031 z"
         id="path806" />
      <path
         d="m 3.7647092,11.197436 h -0.00345 q -0.01447,-0.0034 -0.02825,-0.0048 -0.013436,-0.0017 -0.032039,-0.0017 -0.029972,0 -0.057878,0.01343 -0.027905,0.01309 -0.053743,0.03411 v 0.273196 h -0.064768 v -0.384817 h 0.064768 v 0.05684 q 0.038585,-0.03101 0.067868,-0.04375 0.029628,-0.01309 0.060289,-0.01309 0.016881,0 0.02446,10e-4 0.00758,6.89e-4 0.022738,0.0031 z"
         id="path803" />
      <path
         d="m 4.1563066,11.319393 q 0,0.09405 -0.048231,0.148483 -0.048231,0.05443 -0.1291912,0.05443 -0.081649,0 -0.1298801,-0.05443 -0.047887,-0.05443 -0.047887,-0.148483 0,-0.09405 0.047887,-0.148484 0.048231,-0.05478 0.1298801,-0.05478 0.08096,0 0.1291912,0.05478 0.048231,0.05443 0.048231,0.148484 z m -0.066835,0 q 0,-0.07476 -0.029283,-0.110932 -0.029283,-0.03652 -0.081304,-0.03652 -0.05271,0 -0.081993,0.03652 -0.028939,0.03617 -0.028939,0.110932 0,0.07235 0.029283,0.109898 0.029283,0.03721 0.081649,0.03721 0.051677,0 0.08096,-0.03686 0.029628,-0.03721 0.029628,-0.110243 z"
         id="path800" />
      <path
         d="m 4.4993281,11.197436 h -0.00345 q -0.014469,-0.0034 -0.02825,-0.0048 -0.013436,-0.0017 -0.032039,-0.0017 -0.029972,0 -0.057878,0.01343 -0.027905,0.01309 -0.053743,0.03411 v 0.273196 h -0.064768 v -0.384817 h 0.064768 v 0.05684 q 0.038585,-0.03101 0.067868,-0.04375 0.029628,-0.01309 0.060289,-0.01309 0.016881,0 0.02446,10e-4 0.00758,6.89e-4 0.022738,0.0031 z"
         id="path797" />
      <path
         d="M 5.1433407,11.511629 H 4.8188125 v -0.512975 h 0.068213 v 0.452341 h 0.2563152 z"
         id="path794" />
      <path
         d="m 5.5370051,11.319393 q 0,0.09405 -0.048231,0.148483 -0.048231,0.05443 -0.1291912,0.05443 -0.081649,0 -0.1298802,-0.05443 -0.047887,-0.05443 -0.047887,-0.148483 0,-0.09405 0.047887,-0.148484 0.048231,-0.05478 0.1298802,-0.05478 0.08096,0 0.1291912,0.05478 0.048231,0.05443 0.048231,0.148484 z m -0.066835,0 q 0,-0.07476 -0.029283,-0.110932 -0.029283,-0.03652 -0.081304,-0.03652 -0.05271,0 -0.081993,0.03652 -0.028939,0.03617 -0.028939,0.110932 0,0.07235 0.029283,0.109898 0.029283,0.03721 0.081649,0.03721 0.051676,0 0.08096,-0.03686 0.029628,-0.03721 0.029628,-0.110243 z"
         id="path791" />
      <path
         d="m 5.9389378,11.511629 h -0.064423 v -0.041 q -0.00861,0.0059 -0.023427,0.01654 -0.014469,0.01033 -0.02825,0.01654 -0.016192,0.0079 -0.037207,0.01309 -0.021015,0.0055 -0.049265,0.0055 -0.052021,0 -0.088194,-0.03445 -0.036174,-0.03445 -0.036174,-0.08785 0,-0.04375 0.018604,-0.07062 0.018948,-0.02722 0.053743,-0.04272 0.03514,-0.0155 0.084405,-0.02102 0.049265,-0.0055 0.1057645,-0.0083 v -0.01 q 0,-0.02205 -0.00792,-0.03652 -0.00758,-0.01447 -0.022049,-0.02274 -0.01378,-0.0079 -0.033073,-0.01068 -0.019293,-0.0028 -0.040308,-0.0028 -0.025494,0 -0.056844,0.0069 -0.03135,0.0065 -0.064768,0.01929 h -0.00345 v -0.0658 q 0.018948,-0.0052 0.054777,-0.01137 0.035829,-0.0062 0.070624,-0.0062 0.040652,0 0.070625,0.0069 0.030317,0.0065 0.052366,0.02274 0.021704,0.01585 0.033073,0.041 0.011369,0.02515 0.011369,0.06236 z m -0.064423,-0.09474 v -0.107143 q -0.029628,0.0017 -0.069935,0.0052 -0.039963,0.0034 -0.06339,0.01 -0.027905,0.0079 -0.045131,0.02481 -0.017226,0.01654 -0.017226,0.04582 0,0.03307 0.019982,0.04995 0.019982,0.01654 0.060978,0.01654 0.034107,0 0.062356,-0.01309 0.02825,-0.01344 0.052366,-0.03204 z"
         id="path788" />
      <path
         d="m 6.3784219,11.511629 h -0.064768 v -0.04031 q -0.027905,0.02412 -0.058222,0.03755 -0.030317,0.01344 -0.065801,0.01344 -0.068902,0 -0.1095541,-0.05306 -0.040308,-0.05305 -0.040308,-0.147105 0,-0.04892 0.01378,-0.08716 0.014125,-0.03824 0.037896,-0.06511 0.023427,-0.02618 0.054433,-0.03996 0.03135,-0.01378 0.064768,-0.01378 0.030317,0 0.053744,0.0065 0.023427,0.0062 0.049265,0.01964 v -0.166743 h 0.064768 z m -0.064768,-0.09474 v -0.220831 q -0.026183,-0.01171 -0.046853,-0.01619 -0.020671,-0.0045 -0.045131,-0.0045 -0.054432,0 -0.084749,0.0379 -0.030317,0.0379 -0.030317,0.107487 0,0.06856 0.023427,0.104386 0.023427,0.03548 0.075103,0.03548 0.027561,0 0.055811,-0.01206 0.02825,-0.0124 0.05271,-0.0317 z"
         id="path785" />
      <path
         d="m 6.5781273,11.062388 h -0.073036 v -0.06718 h 0.073036 z m -0.00413,0.449241 h -0.064768 v -0.384817 h 0.064768 z"
         id="path782" />
      <path
         d="m 7.0265689,11.511629 h -0.064768 v -0.219108 q 0,-0.02653 -0.0031,-0.04961 -0.0031,-0.02343 -0.011369,-0.03652 -0.00861,-0.01447 -0.024805,-0.02136 -0.016192,-0.0072 -0.04203,-0.0072 -0.026527,0 -0.055466,0.01309 -0.028939,0.01309 -0.055466,0.03342 v 0.287321 h -0.064768 v -0.384817 h 0.064768 v 0.04272 q 0.030317,-0.02515 0.062701,-0.03927 0.032384,-0.01412 0.06649,-0.01412 0.062356,0 0.095085,0.03755 0.032728,0.03755 0.032728,0.108177 z"
         id="path779" />
      <path
         d="m 7.4660529,11.467876 q 0,0.09784 -0.044442,0.143661 -0.044442,0.04582 -0.1367704,0.04582 -0.030661,0 -0.059945,-0.0045 -0.028939,-0.0041 -0.057189,-0.01206 v -0.06615 h 0.00345 q 0.015847,0.0062 0.050298,0.01516 0.034451,0.0093 0.068902,0.0093 0.033073,0 0.054777,-0.0079 0.021704,-0.0079 0.033762,-0.02205 0.012058,-0.01344 0.017226,-0.03238 0.00517,-0.01895 0.00517,-0.04237 v -0.03514 q -0.029283,0.02343 -0.056155,0.03514 -0.026527,0.01137 -0.067868,0.01137 -0.068902,0 -0.1095541,-0.04961 -0.040308,-0.04995 -0.040308,-0.14056 0,-0.04961 0.01378,-0.08544 0.014125,-0.03617 0.038241,-0.06236 0.022393,-0.02446 0.054433,-0.0379 0.032039,-0.01378 0.063734,-0.01378 0.033417,0 0.05581,0.0069 0.022738,0.0065 0.047887,0.02033 l 0.00413,-0.01654 h 0.060634 z m -0.064768,-0.06201 v -0.209807 q -0.025838,-0.01171 -0.048231,-0.01654 -0.022049,-0.0052 -0.044097,-0.0052 -0.053399,0 -0.08406,0.03583 -0.030661,0.03583 -0.030661,0.104042 0,0.06477 0.022738,0.09818 0.022738,0.03342 0.075448,0.03342 0.02825,0 0.0565,-0.01068 0.028594,-0.01102 0.052365,-0.02928 z"
         id="path776" />
      <path
         d="m 7.9164512,11.062388 h -0.073036 v -0.06718 h 0.073036 z m -0.00413,0.449241 h -0.064768 v -0.384817 h 0.064768 z"
         id="path773" />
      <path
         d="m 8.6046715,11.511629 h -0.064768 v -0.219108 q 0,-0.02481 -0.00241,-0.04789 -0.00207,-0.02308 -0.0093,-0.03686 -0.00792,-0.01481 -0.022738,-0.02239 -0.014814,-0.0076 -0.042719,-0.0076 -0.027216,0 -0.054433,0.01378 -0.027216,0.01343 -0.054433,0.03445 0.00103,0.0079 0.00172,0.0186 6.89e-4,0.01033 6.89e-4,0.02067 v 0.246324 h -0.064768 v -0.219108 q 0,-0.02549 -0.00241,-0.04823 -0.00207,-0.02308 -0.0093,-0.03686 -0.00792,-0.01481 -0.022738,-0.02205 -0.014814,-0.0076 -0.042719,-0.0076 -0.026527,0 -0.053399,0.01309 -0.026527,0.01309 -0.053055,0.03342 v 0.287321 h -0.064768 v -0.384817 h 0.064768 v 0.04272 q 0.030317,-0.02515 0.060289,-0.03927 0.030317,-0.01412 0.064423,-0.01412 0.039274,0 0.06649,0.01654 0.027561,0.01654 0.040997,0.04582 0.039274,-0.03307 0.071658,-0.04754 0.032384,-0.01481 0.069246,-0.01481 0.06339,0 0.093362,0.03858 0.030317,0.03824 0.030317,0.107143 z"
         id="path770" />
      <path
         d="m 9.0310646,11.511629 h -0.064423 v -0.041 q -0.00861,0.0059 -0.023427,0.01654 -0.014469,0.01033 -0.02825,0.01654 -0.016192,0.0079 -0.037207,0.01309 -0.021015,0.0055 -0.049265,0.0055 -0.052021,0 -0.088195,-0.03445 -0.036174,-0.03445 -0.036174,-0.08785 0,-0.04375 0.018603,-0.07062 0.018948,-0.02722 0.053744,-0.04272 0.03514,-0.0155 0.084405,-0.02102 0.049265,-0.0055 0.1057645,-0.0083 v -0.01 q 0,-0.02205 -0.00792,-0.03652 -0.00758,-0.01447 -0.022049,-0.02274 -0.01378,-0.0079 -0.033073,-0.01068 -0.019293,-0.0028 -0.040308,-0.0028 -0.025494,0 -0.056844,0.0069 -0.03135,0.0065 -0.064768,0.01929 h -0.00345 v -0.0658 q 0.018948,-0.0052 0.054777,-0.01137 0.035829,-0.0062 0.070625,-0.0062 0.040652,0 0.070624,0.0069 0.030317,0.0065 0.052366,0.02274 0.021704,0.01585 0.033073,0.041 0.011369,0.02515 0.011369,0.06236 z m -0.064423,-0.09474 v -0.107143 q -0.029628,0.0017 -0.069935,0.0052 -0.039963,0.0034 -0.06339,0.01 -0.027905,0.0079 -0.045131,0.02481 -0.017226,0.01654 -0.017226,0.04582 0,0.03307 0.019982,0.04995 0.019982,0.01654 0.060978,0.01654 0.034106,0 0.062356,-0.01309 0.02825,-0.01344 0.052365,-0.03204 z"
         id="path767" />
      <path
         d="m 9.4705486,11.467876 q 0,0.09784 -0.044442,0.143661 -0.044442,0.04582 -0.1367704,0.04582 -0.030661,0 -0.059945,-0.0045 -0.028939,-0.0041 -0.057189,-0.01206 v -0.06615 h 0.00345 q 0.015848,0.0062 0.050298,0.01516 0.034451,0.0093 0.068902,0.0093 0.033073,0 0.054777,-0.0079 0.021704,-0.0079 0.033762,-0.02205 0.012058,-0.01344 0.017225,-0.03238 0.00517,-0.01895 0.00517,-0.04237 v -0.03514 q -0.029283,0.02343 -0.056155,0.03514 -0.026527,0.01137 -0.067868,0.01137 -0.068902,0 -0.1095541,-0.04961 -0.040308,-0.04995 -0.040308,-0.14056 0,-0.04961 0.01378,-0.08544 0.014125,-0.03617 0.03824,-0.06236 0.022393,-0.02446 0.054433,-0.0379 0.032039,-0.01378 0.063734,-0.01378 0.033417,0 0.055811,0.0069 0.022738,0.0065 0.047887,0.02033 l 0.00413,-0.01654 h 0.060634 z m -0.064768,-0.06201 v -0.209807 q -0.025838,-0.01171 -0.048231,-0.01654 -0.022049,-0.0052 -0.044097,-0.0052 -0.053399,0 -0.08406,0.03583 -0.030661,0.03583 -0.030661,0.104042 0,0.06477 0.022738,0.09818 0.022738,0.03342 0.075448,0.03342 0.02825,0 0.0565,-0.01068 0.028594,-0.01102 0.052365,-0.02928 z"
         id="path764" />
      <path
         d="M 9.9227796,11.325938 H 9.6392481 q 0,0.03548 0.01068,0.06201 0.01068,0.02618 0.029283,0.04306 0.017915,0.01654 0.042375,0.02481 0.024805,0.0083 0.054433,0.0083 0.039274,0 0.078893,-0.0155 0.039963,-0.01585 0.056844,-0.03101 h 0.00345 v 0.07062 q -0.032728,0.01378 -0.066835,0.02308 -0.034107,0.0093 -0.071658,0.0093 -0.095774,0 -0.1495172,-0.05168 -0.053743,-0.05202 -0.053743,-0.14745 0,-0.0944 0.051332,-0.149862 0.051676,-0.05547 0.1357369,-0.05547 0.077859,0 0.1198894,0.04547 0.042375,0.04547 0.042375,0.129191 z m -0.063045,-0.04961 q -3.445e-4,-0.05099 -0.025838,-0.07889 -0.025149,-0.02791 -0.076826,-0.02791 -0.052021,0 -0.083027,0.03066 -0.030661,0.03066 -0.034795,0.07614 z"
         id="path761" />
    </g>
  </g>
</svg>
